/* XPM */
static char *_fb4701be51f4542e68c8f363355367cZV8eOYzXyB3QQSwv[] = {
/* columns rows colors chars-per-pixel */
"32 32 17 1 ",
"  c #62697C",
". c #E47171",
"X c #189B57",
"o c #209A59",
"O c #19A25A",
"+ c #1AA45C",
"@ c #1DA85D",
"# c #1FAA5F",
"$ c #1AB561",
"% c #1CB763",
"& c #1FBA66",
"* c #22AC62",
"= c #20BB67",
"- c #23BE6A",
"; c #AA835D",
": c #FF9BA7",
"> c #FFC688",
/* pixels */
"&--&%$$$$&%%&&%$$&&$$$&$%--$&$&&",
"&--&&$$$$&&&&%&&&$$$$$$$$&%&&%%&",
"&--%&$$$$%%&&&%%&$$$$$$$$%&&&%&&",
"&--$$$$$$&&&%&&&&$$$$$$&&&&%&&&%",
"&--$$$$$$%&%&&&%&$$$$$$&&%%&%%&&",
"&$$&&$$&&&&&&%&&&%&$$$$%&&&&&&&&",
"=$$&&$$%&%&&&%%&&%&$$$$&%&&%&%%&",
"&$$&&%&&&%&&&--****----&&&&%&&&&",
"&$$%&%&&&&%&&--****-----&&&%&&%&",
"$&&&&%&%%&&&&      ****--&&$$$$$",
"$&%&&&%&&&%&&      ****--&&$$$$$",
"%&%&%&&&%%&  ::::..  Xo**@@$$&%&",
"&&&%&&&%&&%  ::::..  oo**@*$$&&%",
"&%&%%----  ::>>>>..  oooooX@@&&&",
"&&%&&----  ::>>>>..  oooooo*@&%&",
"%&&----**  ....::..      oooo@@&",
"&%&----**  ....::..      oooo*@&",
"&&&----**oo        ..::..  oo@@&",
"%&&----**oo        ..::..  oo@*&",
"%&&----@#oooooooo  ::>>>>::  *@%",
"&&&----@#oooooooo  ::>>>>::  *@&",
"&%%----&&###@oooo  ..::....  @@&",
"%&&----%&@##@oooo  ..::....  #*&",
"&&%&%&&&&&&&&*@oooo        oX##%",
"&%&&%%&&&%&&&@@oooo        oo@#&",
"&&%&&&&%&%&%&&&@@**oooooooo**&&&",
"%&%&&%&%&&&%%&%@@**oooooooo**&&%",
"&----&&$$%&&&------********&&%$&",
"&----&%$$%&&%------********&&$&&",
"&------&&&&%&&&&&--------&%&$$$%",
"&------&&%&&&%&&&--------&&$%$$&",
"++++OOOXX&%++++$$&&%%$&$$--%%%$;"
};
