/* XPM */
static char * flower2_grass_xpm[] = {
"32 32 14 1",
" 	c #1FBA66",
".	c #23BE6A",
"+	c #1EB965",
"@	c #1AB561",
"#	c #1CB763",
"$	c #20BB67",
"%	c #22AC62",
"&	c #62697C",
"*	c #E9F6FB",
"=	c #C1CFF9",
"-	c #209A59",
";	c #1FAA5F",
">	c #FFC688",
",	c #1DA85D",
"  ..++@@@@++++++@@  ######..####",
"  ..++@@@@++++++@@  ######..####",
"++..++@@@@++++++++@@@@@@@@++++++",
"++..++@@@@++++++++@@@@@@@@++++++",
"++..@@@@@@++++++++@@@@@@++++++++",
"++..@@@@@@++++++++@@@@@@++++++++",
"$$@@$$@@++++  ++++++@@@@++++++++",
"$$@@$$@@++++  ++++++@@@@++++++++",
"++@@++++++++  ..%%%%....$$++++++",
"++@@++++++++  ..%%%%....$$++++++",
"@@++++++++++++&&&&&&%%%%..++@@@@",
"@@++++++++++++&&&&&&%%%%..++@@@@",
"++++++++++++&&****==&&--%%;;@@++",
"++++++++++++&&****==&&--%%;;@@++",
"++++++....&&**>>>>==&&------;;++",
"++++++....&&**>>>>==&&------;;++",
"++++....%%&&====**==&&&&&&----;;",
"++++....%%&&====**==&&&&&&----;;",
"++++....%%--&&&&&&&&==**==&&--;;",
"++++....%%--&&&&&&&&==**==&&--;;",
"++++....;;--------&&**>>>>**&&;;",
"++++....;;--------&&**>>>>**&&;;",
"++++....++;;;;----&&==**====&&;;",
"++++....++;;;;----&&==**====&&;;",
"++++++++++++++;;----&&&&&&&&--;;",
"++++++++++++++;;----&&&&&&&&--;;",
"++++++++++++++++,,%%--------%%++",
"++++++++++++++++,,%%--------%%++",
"++....++@@++++......%%%%%%%%++##",
"++....++@@++++......%%%%%%%%++##",
"++......++++++++  ........++##@@",
"++......++++++++  ........++##@@"};
