/* XPM */
static char * grassy_grass_xpm[] = {
"32 32 9 1",
" 	c #1FBA66",
".	c #23BE6A",
"+	c #1EB965",
"@	c #1AB561",
"#	c #1CB763",
"$	c #20BB67",
"%	c #1FA75E",
"&	c #209A59",
"*	c #22A960",
"  ..++@@@@++++++@@  ######..####",
"  ..++@@@@++++++@@  ######..####",
"++..++@@@@++++++++@@@@@@@@++++++",
"++..++@@@@++++++++@@@@@@@@++++++",
"++..@@@@@@++++++++@@@@@@++++++++",
"++..@@@@@@++++++++@@@@@@++++++++",
"$$@@$$@@++%%&&++++++@@@@++++++++",
"$$@@$$@@++%%&&++++++@@@@++++++++",
"++@@++++++%%&&..........$$++++++",
"++@@++++++%%&&..........$$++++++",
"@@++**&&++&&%%............++@@@@",
"@@++**&&++&&%%............++@@@@",
"++++**&&++&&%%%%&&  @@++..++@@++",
"++++**&&++&&%%%%&&  @@++..++@@++",
"++++++......++&&%%@@@@@@@@++++++",
"++++++......++&&%%@@@@@@@@++++++",
"++++........@@++++++@@@@@@++++++",
"++++........@@++++++@@@@@@++++++",
"++++........++++++++%%&&++++++++",
"++++........++++++++%%&&++++++++",
"++++....++++++++@@++%%&&++++++++",
"++++....++++++++@@++%%&&++++++++",
"++++....++++++**&&++&&%%++++++++",
"++++....++++++**&&++&&%%++++++++",
"++++++++++++++**&&++&&%%%%&&++++",
"++++++++++++++**&&++&&%%%%&&++++",
"++++++++++++++++@@....$$&&%%..++",
"++++++++++++++++@@....$$&&%%..++",
"++....++@@++++..............++##",
"++....++@@++++..............++##",
"++......++++++++  ........++##@@",
"++......++++++++  ........++##@@"};
