/* XPM */
static char *_aa5ef51d00846e79cd68e53a511d7bbxWps8mnyyFNjhcqu[] = {
/* columns rows colors chars-per-pixel */
"32 32 8 1 ",
"  c #209A59",
". c #1FA75E",
"X c #1AB561",
"o c #1CB763",
"O c #1FBA66",
"+ c #22A960",
"@ c #20BB67",
"# c #23BE6A",
/* pixels */
"O##OoXXXXoOOOooXXOOXXoooo##XOooO",
"O##OOXXXXOOoOOOXXOOOOXooo##XXooO",
"O##oOXXXXOOoooOOOXXXXXXXXOOOoOOO",
"O##OoXXXXoOOOOOooXXXXXXXXOoOOOoO",
"O##XXXXXXoOOOOOoOXXXXXXooOOOOOoO",
"O##XXXXXXOOoooOOOXXXXXXOOOoooOoO",
"OXX@OXXOO..  OoOooOXXXXOOoOOoOOO",
"OXXOOXXOo..  OOOOOOXXXXoOOoOOOOO",
"OXXOoOOOo..  ##########OOOoOOOoO",
"OXXoOOoOO..  ##########OOoOOoOoO",
"XOO++  oO  ..############OOXXXXX",
"XoO++  Oo  ..############OoXXXXX",
"Ooo++  OO  ....  OOXXOo##OOXXOoO",
"OOO++  oO  ....  OOXXOO##oOXXOoO",
"ooOOO######OO  ..XXXXXXXXOOoOoOO",
"OOOoO######oo  ..XXXXXXXXoOoOOOo",
"Ooo########XXOOoOoOXXXXXXOOoOOOo",
"OOO########XXoOOOOOXXXXXXoOoOoOO",
"oOO########OOooOOoo..  OOOOOoOoO",
"oOO########oOOOOOOO..  oOooOOOoO",
"OOO####oOOoOoOOXXoO..  OOooOOOoO",
"Ooo####OoOoOOOoXXOo..  OOOOOoOoO",
"OOO####OOoOOo++  oO  ..ooOOoOoOO",
"ooO####oOOOoO++  OO  ..OoOOoOOOo",
"OOoOOOoOoOOOo++  oO  ....  OooOO",
"OoOOoOoOOOoOO++  OO  ....  OOOOo",
"OOooOoOOOoOoOOoXX####@@  ..##OOo",
"oOOOOOOoOoOOoOOXX####@O  ..##oOO",
"o####OOXXoOOo##############OOOXO",
"O####ooXXOOoO##############OoXXO",
"O######OoOOOOoOOO########OOXXXXO",
"o######OOOooOOOOO########oOooXXO"
};
