/* XPM */
static char *c863403ffa654c4bf4e8b9d079131f01L8SqoUTMwxrCEPff[] = {
/* columns rows colors chars-per-pixel */
"32 32 5 1 ",
"  c #1AB561",
". c #1CB763",
"X c #1FBA66",
"o c #20BB67",
"O c #23BE6A",
/* pixels */
"XXOOXX    ..XX.X  XXX ....OO ...",
"XXOOX.    XXX.XX  XX  ....OOX ..",
"X.OOX.    X.XX..X.        X..XXX",
"XXOOXX    XX.XXXXX        XXXX.X",
"XXOO      XX.XXX.X      X..XXX.X",
".XOO      X.XX...X      XXXX.X.X",
"Xo  XX  X.X.XXXXXXXX    .XX.X.XX",
"oo  oX  X.XXXX.XX..X    .XX.XXX.",
"X.  XX..XXX.XXOOOOOOOOOOXo.XXX.X",
"XX  .XXXX.XXXXOOOOOOOOOOooXX.X.X",
"  XX.XXX.X.X.XOOOOOOOOOOOOX.    ",
"  X.XX..XX.XXXOOOOOOOOOOOOXX    ",
"X.XX.XXXX.X.XXOOOOXX  ..OOX.  XX",
"XX.X.X.XXXX.X.OOOOXX  XXOOXX  X.",
"..XXXXOOOOOOXX..          .XXXX.",
"XXX.X.OOOOOO.XXX          XX..XX",
"XXX.OOOOOOOO  .XXXX.      XX..XX",
"..XXOOOOOOOO  XXX.XX      .XXXX.",
"XX.XOOOOOOOOX.X..X.XXX.X..XXXXX.",
"X.XXOOOOOOOOXXX.XX.X.XXXXXX...XX",
"XX.XOOOO..XX.XXX  .XX.X..XXXXXX.",
".X.XOOOOXXX.XX.X  XXXXXXXX..X.XX",
"X.XXOOOOXXX.X.X.XX.... .X.XX.X.X",
"XXX.OOOO..XXX.XX.XXXXXX XX.XXX.X",
".XX.XXX.XX..XX.XX..XOOXX    X.XX",
".XX.X.XX.XXXX.XXXXXXOO.X X  XXX.",
"XXXX.X.X.XXXXX..  OOOOoo....OOX.",
"X..XXX.XXX...XXX  OOOOoX....OOXX",
"XXOOOOX.  XX.XOOOOOOOOOOOOOO.. X",
"..OOOOXX  .XXXOOOOOOOOOOOOOOXX. ",
"XXOOOOOO.XXXX.X.XXOOOOOOOOX...  ",
"X.OOOOOOXX..XXX.XXOOOOOOOOXX..  "
};
