/* XPM */
static char * grass_xpm[] = {
"32 32 6 1",
" 	c #1FBA66",
".	c #23BE6A",
"+	c #1EB965",
"@	c #1AB561",
"#	c #1CB763",
"$	c #20BB67",
"  ..++@@@@++++++@@  ######..####",
"  ..++@@@@++++++@@  ######..####",
"++..++@@@@++++++++@@@@@@@@++++++",
"++..++@@@@++++++++@@@@@@@@++++++",
"++..@@@@@@++++++++@@@@@@++++++++",
"++..@@@@@@++++++++@@@@@@++++++++",
"$$@@$$@@++++  ++++++@@@@++++++++",
"$$@@$$@@++++  ++++++@@@@++++++++",
"++@@++++++++  ..........$$++++++",
"++@@++++++++  ..........$$++++++",
"@@++++++++++++............++@@@@",
"@@++++++++++++............++@@@@",
"++++++++++++++....  @@++..++@@++",
"++++++++++++++....  @@++..++@@++",
"++++++......++++@@@@@@@@@@++++++",
"++++++......++++@@@@@@@@@@++++++",
"++++........@@++++++@@@@@@++++++",
"++++........@@++++++@@@@@@++++++",
"++++........++++++++++++++++++++",
"++++........++++++++++++++++++++",
"++++....++++++++@@++++++++++++++",
"++++....++++++++@@++++++++++++++",
"++++....++++++++++++++##++++++++",
"++++....++++++++++++++##++++++++",
"++++++++++++++++++++..++##@@++++",
"++++++++++++++++++++..++##@@++++",
"++++++++++++++++@@....$$####..++",
"++++++++++++++++@@....$$####..++",
"++....++@@++++..............++##",
"++....++@@++++..............++##",
"++......++++++++  ........++##@@",
"++......++++++++  ........++##@@"};
