/* XPM */
static char *_3804f1f5eb7434bd91b5d914998f4b9XEiqn1BwlWUYHI4p[] = {
/* columns rows colors chars-per-pixel */
"32 32 13 1 ",
"  c #054E0E",
". c #03580A",
"X c #045E09",
"o c #0A7510",
"O c #108C17",
"+ c #1CA524",
"@ c #169650",
"# c #199954",
"$ c #1D9D58",
"% c #1CB763",
"& c #1FBA66",
"* c #23BE6A",
"= c #3EC946",
/* pixels */
"&&**&&    &&&%&&&&&&%%    **%%%%",
"&&**&%    &%&&&&&&&&%%    **%%%%",
"&%**++====++  %%%&  ++====++&&&%",
"&&**++====++  &&&&  ++====++%%&&",
"&%XXXX======++    ++======XXXX&&",
"&&XXXX======++    ++======XXXX&%",
"  OOOOXX======OOOO======XXOOOO  ",
"  OOOOXX======OOOO======XXOOOO  ",
"@#  OOOOXX++++OOOO++++XXOOOO  ##",
"##  OOOOXX++++OOOO++++XXOOOO  ##",
"@@##      XXXXooooXXXX      @@@@",
"@@##      XXXXooooXXXX      @@@@",
"&&  ====++  ooXXXXoo  ++====  &%",
"%&  ====++  ooXXXXoo  ++====  &&",
"XX++====++OOooXXXXooOO++====++XX",
"XX++====++OOooXXXXooOO++====++XX",
"####  XXXXXXOO....OOXXXXXX  @###",
"###@  XXXXXXOO....OOXXXXXX  ####",
"##OOXX++++++OO++++OO++++++XXOO##",
"##OOXX++++++OO++++OO++++++XXOO##",
"&%XX++++====XX++++XX====++++XX&&",
"&&XX++++====XX++++XX====++++XX%&",
"%&  XX++==XX++====++XX==++XX  &&",
"&&  XX++==XX++====++XX==++XX  &%",
"&%  OOXXXX  ++====++  XXXXOO  &%",
"&&  OOXXXX  ++====++  XXXXOO  &&",
"  OOOOOO  OO  ++++  OO  OOOOOO  ",
"  OOOOOO  OO  ++++  OO  OOOOOO  ",
"  OOOO  @@  OO    OO  $$  OOOO  ",
"  OOOO  @@  OO    OO  $$  OOOO  ",
"##    $$&&##  OOOO  $$**#$    @@",
"##    $$&&##  OOOO  $$**$$    @@"
};
