/* XPM */
static char * pkmn_grass_xpm[] = {
"32 32 14 1",
" 	c #1FBA66",
".	c #23BE6A",
"+	c #1EB965",
"@	c #054E0E",
"#	c #1CB763",
"$	c #1CA524",
"%	c #3EC946",
"&	c #045E09",
"*	c #108C17",
"=	c #199954",
"-	c #169650",
";	c #0A7510",
">	c #03580A",
",	c #1D9D58",
"  ..++@@@@++++      ##@@@@..####",
"  ..++@@@@++++      ##@@@@..####",
"++..$$%%%%$$@@++++@@$$%%%%$$++++",
"++..$$%%%%$$@@++++@@$$%%%%$$++++",
"++&&&&%%%%%%$$@@@@$$%%%%%%&&&&++",
"++&&&&%%%%%%$$@@@@$$%%%%%%&&&&++",
"@@****&&%%%%%%****%%%%%%&&****@@",
"@@****&&%%%%%%****%%%%%%&&****@@",
"==@@****&&$$$$****$$$$&&****@@==",
"==@@****&&$$$$****$$$$&&****@@==",
"--==@@@@@@&&&&;;;;&&&&@@@@@@----",
"--==@@@@@@&&&&;;;;&&&&@@@@@@----",
"++@@%%%%$$@@;;&&&&;;@@$$%%%%@@++",
"++@@%%%%$$@@;;&&&&;;@@$$%%%%@@++",
"&&$$%%%%$$**;;&&&&;;**$$%%%%$$&&",
"&&$$%%%%$$**;;&&&&;;**$$%%%%$$&&",
"====@@&&&&&&**>>>>**&&&&&&@@====",
"====@@&&&&&&**>>>>**&&&&&&@@====",
"==**&&$$$$$$**$$$$**$$$$$$&&**==",
"==**&&$$$$$$**$$$$**$$$$$$&&**==",
"++&&$$$$%%%%&&$$$$&&%%%%$$$$&&++",
"++&&$$$$%%%%&&$$$$&&%%%%$$$$&&++",
"++@@&&$$%%&&$$%%%%$$&&%%$$&&@@++",
"++@@&&$$%%&&$$%%%%$$&&%%$$&&@@++",
"++@@**&&&&@@$$%%%%$$@@&&&&**@@++",
"++@@**&&&&@@$$%%%%$$@@&&&&**@@++",
"@@******@@**@@$$$$@@**@@******@@",
"@@******@@**@@$$$$@@**@@******@@",
"@@****@@--@@**@@@@**@@,,@@****@@",
"@@****@@--@@**@@@@**@@,,@@****@@",
"==@@@@,,++==@@****@@,,..,,@@@@--",
"==@@@@,,++==@@****@@,,..,,@@@@--"};
