/* XPM */
static char * red_xpm[] = {
"32 32 450 2",
"  	c None",
". 	c #741D3D",
"+ 	c #731D3C",
"@ 	c #000011",
"# 	c #55163A",
"$ 	c #C44D45",
"% 	c #D05346",
"& 	c #CE5246",
"* 	c #9A3641",
"= 	c #000027",
"- 	c #230004",
"; 	c #58171E",
"> 	c #A63A43",
", 	c #E45F48",
"' 	c #F06848",
") 	c #C34B47",
"! 	c #7D2931",
"~ 	c #310207",
"{ 	c #000000",
"] 	c #72161D",
"^ 	c #CF463D",
"/ 	c #EF6748",
"( 	c #E25844",
"_ 	c #A2282E",
": 	c #170102",
"< 	c #3D0D31",
"[ 	c #BB483F",
"} 	c #EF6348",
"| 	c #F06548",
"1 	c #DF5944",
"2 	c #732437",
"3 	c #982839",
"4 	c #DD5746",
"5 	c #EC6448",
"6 	c #B63A40",
"7 	c #6A192A",
"8 	c #1A0103",
"9 	c #AA2D30",
"0 	c #E55844",
"a 	c #EF6848",
"b 	c #ED6447",
"c 	c #CA3F3B",
"d 	c #631318",
"e 	c #240404",
"f 	c #B13233",
"g 	c #C53D3A",
"h 	c #D04A3D",
"i 	c #DF5942",
"j 	c #C63F3A",
"k 	c #C43A39",
"l 	c #761E1F",
"m 	c #260505",
"n 	c #B63534",
"o 	c #C03838",
"p 	c #C43E39",
"q 	c #D85340",
"r 	c #D95340",
"s 	c #E15B43",
"t 	c #E96246",
"u 	c #DA5441",
"v 	c #CE483C",
"w 	c #7A2020",
"x 	c #470E1A",
"y 	c #AE3236",
"z 	c #BC3739",
"A 	c #CE483D",
"B 	c #EA6549",
"C 	c #EF8477",
"D 	c #F0897E",
"E 	c #F08A7F",
"F 	c #EC7460",
"G 	c #DC5440",
"H 	c #BF3838",
"I 	c #BA363A",
"J 	c #7D2129",
"K 	c #350716",
"L 	c #882840",
"M 	c #872741",
"N 	c #A92F3B",
"O 	c #C03738",
"P 	c #C13838",
"Q 	c #C54445",
"R 	c #E3D9E7",
"S 	c #E9E7F7",
"T 	c #EAE7F7",
"U 	c #D1959D",
"V 	c #BB3439",
"W 	c #8F293F",
"X 	c #892840",
"Y 	c #862640",
"Z 	c #52281D",
"` 	c #672C2A",
" .	c #7E3A29",
"..	c #AB7D8A",
"+.	c #BF8DA6",
"@.	c #C03A3B",
"#.	c #BD596B",
"$.	c #BA85A6",
"%.	c #C88C99",
"&.	c #CB8E97",
"*.	c #CC8F98",
"=.	c #BF87A1",
"-.	c #BB6F8C",
";.	c #C07284",
">.	c #B892AA",
",.	c #905145",
"'.	c #6B312B",
").	c #5C2923",
"!.	c #3F290F",
"~.	c #5D3326",
"{.	c #80543E",
"].	c #91694A",
"^.	c #6F421D",
"/.	c #937683",
"(.	c #B58FAC",
"_.	c #BF768A",
":.	c #BE7387",
"<.	c #C2A0B3",
"[.	c #CBD3E9",
"}.	c #CFA4B0",
"|.	c #CF97A1",
"1.	c #D0969F",
"2.	c #CDC2D5",
"3.	c #C7BDD2",
"4.	c #BD7386",
"5.	c #BF7588",
"6.	c #BC859F",
"7.	c #A48BA5",
"8.	c #73492D",
"9.	c #825B3E",
"0.	c #8D6247",
"a.	c #66382C",
"b.	c #602E32",
"c.	c #AF7661",
"d.	c #D59D76",
"e.	c #503929",
"f.	c #420C16",
"g.	c #96536A",
"h.	c #B2ADCC",
"i.	c #B5AFCF",
"j.	c #CBC7E1",
"k.	c #E8E8F8",
"l.	c #DAD9ED",
"m.	c #B6B1D1",
"n.	c #B5AECE",
"o.	c #A9839F",
"p.	c #6C161E",
"q.	c #060101",
"r.	c #B18362",
"s.	c #CA9070",
"t.	c #743C3E",
"u.	c #612E32",
"v.	c #B17761",
"w.	c #D59E76",
"x.	c #513A29",
"y.	c #321C0B",
"z.	c #54372D",
"A.	c #413F4B",
"B.	c #A09AB6",
"C.	c #C1BAD8",
"D.	c #CAC5DF",
"E.	c #C9C4DF",
"F.	c #CAC4DF",
"G.	c #C5BFDB",
"H.	c #B8B0D0",
"I.	c #676477",
"J.	c #523D3E",
"K.	c #492513",
"L.	c #060201",
"M.	c #B28362",
"N.	c #CA9170",
"O.	c #763D3F",
"P.	c #946350",
"Q.	c #987052",
"R.	c #4E3522",
"S.	c #603A1C",
"T.	c #6A3F1E",
"U.	c #281306",
"V.	c #757082",
"W.	c #7F7A94",
"X.	c #6A5E81",
"Y.	c #6B5F82",
"Z.	c #6B5E82",
"`.	c #756D8B",
" +	c #878499",
".+	c #473E44",
"++	c #573217",
"@+	c #6E4220",
"#+	c #3B200B",
"$+	c #7F5C43",
"%+	c #9B6E54",
"&+	c #010100",
"*+	c #37200E",
"=+	c #724322",
"-+	c #8C532A",
";+	c #825838",
">+	c #615964",
",+	c #264355",
"'+	c #010000",
")+	c #170808",
"!+	c #1A0A0A",
"~+	c #1B0A0A",
"{+	c #0C0303",
"]+	c #102B39",
"^+	c #48566D",
"/+	c #77594C",
"(+	c #8A552E",
"_+	c #824C26",
":+	c #523118",
"<+	c #120702",
"[+	c #4B2A12",
"}+	c #A56835",
"|+	c #D59C70",
"1+	c #C7ACBE",
"2+	c #858CAB",
"3+	c #0A0303",
"4+	c #653333",
"5+	c #703939",
"6+	c #723939",
"7+	c #3E1E1E",
"8+	c #556278",
"9+	c #B6AECF",
"0+	c #D5A595",
"a+	c #C0814B",
"b+	c #71401D",
"c+	c #0C0401",
"d+	c #573024",
"e+	c #9C5C46",
"f+	c #D69D74",
"g+	c #F0C8B7",
"h+	c #E6C4B9",
"i+	c #D4B19C",
"j+	c #DFB5A1",
"k+	c #E1B6A2",
"l+	c #D9B39E",
"m+	c #DDBBAB",
"n+	c #F2CDC5",
"o+	c #E5B393",
"p+	c #B87556",
"q+	c #703D31",
"r+	c #3E1A23",
"s+	c #743E3E",
"t+	c #B78168",
"u+	c #E7BA97",
"v+	c #F8D0AF",
"w+	c #F8D0B8",
"x+	c #F3C8AF",
"y+	c #EFC3A7",
"z+	c #F8D0B5",
"A+	c #F2C8A3",
"B+	c #CE9C7D",
"C+	c #91574D",
"D+	c #4C212B",
"E+	c #020305",
"F+	c #1F150A",
"G+	c #754136",
"H+	c #B57357",
"I+	c #E3B593",
"J+	c #F5CDB6",
"K+	c #F7CFB7",
"L+	c #E8B99A",
"M+	c #DCA782",
"N+	c #F7CFB6",
"O+	c #F6CEB6",
"P+	c #EFC6A7",
"Q+	c #CB916A",
"R+	c #915042",
"S+	c #44291A",
"T+	c #020306",
"U+	c #171C2A",
"V+	c #645836",
"W+	c #C09108",
"X+	c #7C5607",
"Y+	c #5E4133",
"Z+	c #9B6A5C",
"`+	c #DBA884",
" @	c #DFAA82",
".@	c #DCA47C",
"+@	c #E4B18A",
"@@	c #BC8870",
"#@	c #765244",
"$@	c #472710",
"%@	c #B38504",
"&@	c #927427",
"*@	c #1F2A39",
"=@	c #010105",
"-@	c #542C2C",
";@	c #241F1F",
">@	c #282E33",
",@	c #6A5D3A",
"'@	c #C79702",
")@	c #A65F12",
"!@	c #8F5768",
"~@	c #9D8AA1",
"{@	c #A16B65",
"]@	c #AC6F58",
"^@	c #B2775E",
"/@	c #A3624E",
"(@	c #A1808E",
"_@	c #947489",
":@	c #922D21",
"<@	c #C18D04",
"[@	c #9B7A2B",
"}@	c #29333D",
"|@	c #1B2223",
"1@	c #402727",
"2@	c #9E6B64",
"3@	c #A5766C",
"4@	c #795D53",
"5@	c #4F4242",
"6@	c #625639",
"7@	c #C1900E",
"8@	c #C55E23",
"9@	c #BF6D81",
"0@	c #BBA2BF",
"a@	c #906F80",
"b@	c #74535A",
"c@	c #664649",
"d@	c #845F6B",
"e@	c #AB91AB",
"f@	c #BF8CA6",
"g@	c #C33A32",
"h@	c #C68612",
"i@	c #93722C",
"j@	c #3B3D42",
"k@	c #634E48",
"l@	c #976E64",
"m@	c #A37169",
"n@	c #5D2A2A",
"o@	c #BD9082",
"p@	c #E1AD87",
"q@	c #8F6053",
"r@	c #3C4238",
"s@	c #885428",
"t@	c #B94333",
"u@	c #C03839",
"v@	c #C04044",
"w@	c #BCA5C3",
"x@	c #88869C",
"y@	c #585B65",
"z@	c #B3AECD",
"A@	c #BF7487",
"B@	c #C0393A",
"C@	c #C03937",
"D@	c #A1502B",
"E@	c #5C4C2F",
"F@	c #5A4947",
"G@	c #CB926D",
"H@	c #F2C8A8",
"I@	c #723A3A",
"J@	c #5D2C2C",
"K@	c #C09284",
"L@	c #F7CFB2",
"M@	c #AF907C",
"N@	c #0A1613",
"O@	c #271611",
"P@	c #803533",
"Q@	c #B13D3D",
"R@	c #C04043",
"S@	c #BDA6C4",
"T@	c #8A889F",
"U@	c #585C67",
"V@	c #B6AFCE",
"W@	c #BB3A3A",
"X@	c #983D3D",
"Y@	c #4E211E",
"Z@	c #0E1C16",
"`@	c #605249",
" #	c #F0C6A8",
".#	c #F8D0B6",
"+#	c #E3B8A4",
"@#	c #743C3C",
"##	c #B6877A",
"$#	c #DCB19E",
"%#	c #DDB19E",
"&#	c #9C7C6F",
"*#	c #0A1721",
"=#	c #253F54",
"-#	c #2A3741",
";#	c #78302F",
">#	c #9D3538",
",#	c #99869E",
"'#	c #6D6C7F",
")#	c #454851",
"!#	c #918EA8",
"~#	c #9B5E6D",
"{#	c #8E2A29",
"]#	c #453334",
"^#	c #203F51",
"/#	c #192D3E",
"(#	c #503F37",
"_#	c #D4AA98",
":#	c #DBAF9D",
"<#	c #CDA08F",
"[#	c #6C3333",
"}#	c #6C3334",
"|#	c #491F21",
"1#	c #172A38",
"2#	c #3F6685",
"3#	c #233B4E",
"4#	c #030A0E",
"5#	c #071119",
"6#	c #060C11",
"7#	c #05080A",
"8#	c #061018",
"9#	c #071019",
"0#	c #050E14",
"a#	c #040C10",
"b#	c #3B5F7C",
"c#	c #2E4C63",
"d#	c #220B0C",
"e#	c #663030",
"f#	c #6B3434",
"g#	c #693131",
"h#	c #100404",
"i#	c #0D1B1F",
"j#	c #31474F",
"k#	c #293F41",
"l#	c #2B4C5B",
"m#	c #3D6381",
"n#	c #3C6381",
"o#	c #395266",
"p#	c #36434B",
"q#	c #3C6280",
"r#	c #345871",
"s#	c #263B39",
"t#	c #30474E",
"u#	c #1D343A",
"v#	c #030101",
"w#	c #3F1515",
"x#	c #933B3B",
"y#	c #983D3C",
"z#	c #7E424C",
"A#	c #234860",
"B#	c #2B4860",
"C#	c #283B4A",
"D#	c #263036",
"E#	c #2A475D",
"F#	c #27485F",
"G#	c #604556",
"H#	c #993E3D",
"I#	c #6E2A2A",
"J#	c #511111",
"K#	c #AE2F2F",
"L#	c #B03030",
"M#	c #942523",
"N#	c #6C1613",
"O#	c #882323",
"P#	c #090101",
"Q#	c #080101",
"                      . . . . . . . . . +                       ",
"                  @ # $ % % % % % % % % & * =                   ",
"                - ; > , ' ' ' ' ' ' ' ' ' ) ! ~                 ",
"              { ] ^ / ' ' ' ' ' ' ' ' ' ' ' ( _ :               ",
"              < [ } ' ' ' ' ' ' ' ' ' ' ' ' | 1 2               ",
"              3 4 ' ' ' ' ' ' ' ' ' ' ' ' ' ' 5 6 7             ",
"            8 9 0 / ' ' ' ' ' ' ' ' ' ' ' ' a b c d {           ",
"            e f g h ' ' ' ' ' ' ' ' ' ' ' ' i j k l {           ",
"            m n o p q r s ' ' ' ' ' ' t q u v o o w {           ",
"            x y z o o o A B C D D E F G o o o H I J K           ",
"            L M N O o o P Q R S S T U P o o o V W X Y           ",
"          Z `  ...+.@.o #.$.%.&.&.*.=.-.o o ;.>.,.'.).!.        ",
"        ~.{.].^./.(._.:.<.[.}.|.|.1.2.3.4.5.6.7.8.9.0.a.        ",
"        b.c.d.e.f.g.h.i.j.k.k.k.k.k.k.l.m.n.o.p.q.r.s.t.        ",
"        u.v.w.x.y.z.A.B.C.D.E.E.E.E.F.G.H.I.J.K.L.M.N.O.        ",
"          P.Q.R.S.T.U.V.W.X.Y.Y.Y.Y.Z.`. +.+++@+#+$+%+          ",
"            &+*+=+-+;+>+,+'+)+!+!+~+{+]+^+/+(+_+:+<+{           ",
"              &+[+}+|+1+2+3+4+5+5+6+7+8+9+0+a+b+c+              ",
"                d+e+f+g+h+i+j+k+k+k+l+m+n+o+p+q+                ",
"                r+s+t+u+v+w+w+x+y+w+w+z+A+B+C+D+                ",
"                E+F+G+H+I+J+K+L+M+N+O+P+Q+R+S+T+                ",
"              { U+V+W+X+Y+Z+`+ @.@+@@@#@$@%@&@*@=@              ",
"            -@;@>@,@'@)@!@~@{@]@^@/@(@_@:@<@[@}@|@1@            ",
"          2@3@4@5@6@7@8@9@0@a@b@c@d@e@f@g@h@i@j@k@l@m@          ",
"        n@o@N+p@q@r@s@t@u@v@w@x@y@z@A@B@C@D@E@F@G@H@k+I@        ",
"        J@K@w+L@M@N@O@P@Q@R@S@T@U@V@5.W@X@Y@Z@`@ #.#+#@#        ",
"          ##$#%#&#*#=#-#;#>#,#'#)#!#~#{#]#^#/#(#_#:#<#I@        ",
"            [#}#|#1#2#3#4#5#5#6#7#8#9#0#a#b#c#d#e#f#g#          ",
"                h#i#j#k#l#m#n#o#p#q#m#r#s#t#u#v#                ",
"                { w#x#y#z#A#B#C#D#E#F#G#H#X@I#{                 ",
"                  J#K#L#M#{ { { { { { N#L#L#O#{                 ",
"                    P#P#Q#              P#P#P#                  "};
