/* XPM */
static char * sign_xpm[] = {
"32 32 10 1",
" 	c None",
".	c #C6A67C",
"+	c #856344",
"@	c #AF8F68",
"#	c #E4C496",
"$	c #745336",
"%	c #624226",
"&	c #876140",
"*	c #5A432F",
"=	c #6B4F36",
"              ....              ",
"              ....              ",
"              ++++              ",
"              ++++              ",
"  @@..####################@@@@  ",
"  @@..####################@@@@  ",
"  $$$$$$$$$$$$$$$$$$$$$$$$$$$$  ",
"  $$$$$$$$$$$$$$$$$$$$$$$$$$$$  ",
"  $$++%%%%%%%%%%%%%%%%%%%%++$$  ",
"  $$++%%%%%%%%%%%%%%%%%%%%++$$  ",
"  $$++++++++++++++++++++++++$$  ",
"  $$++++++++++++++++++++++++$$  ",
"  $$++%%++%%%%%%++%%%%%%%%++$$  ",
"  $$++%%++%%%%%%++%%%%%%%%++$$  ",
"  $$++++++&&++++++++&&++++++$$  ",
"  $$++++++&&++++++++&&++++++$$  ",
"  $$++%%%%++%%%%%%%%++%%%%++$$  ",
"  $$++%%%%++%%%%%%%%++%%%%++$$  ",
"  $$$$$$$$$$$$$$$$$$$$$$$$$$$$  ",
"  $$$$$$$$$$$$$$$$$$$$$$$$$$$$  ",
"              ****              ",
"              ****              ",
"              ====              ",
"              ====              ",
"              ++++              ",
"              ++++              ",
"              ====              ",
"              ====              ",
"                                ",
"                                ",
"                                ",
"                                "};
